<svg width="11" height="13" viewBox="0 0 11 13" fill="none" xmlns="http://www.w3.org/2000/svg">
<path d="M9.41554 1.87988C8.03566 0.5 5.78859 0.5 4.41017 1.87988L0.586928 5.7002C0.562025 5.7251 0.548842 5.75879 0.548842 5.79394C0.548842 5.8291 0.562025 5.86279 0.586928 5.8877L1.12745 6.42822C1.15216 6.45282 1.18561 6.46663 1.22047 6.46663C1.25534 6.46663 1.28878 6.45282 1.31349 6.42822L5.13673 2.60791C5.61134 2.1333 6.24269 1.87256 6.91359 1.87256C7.58449 1.87256 8.21583 2.1333 8.68898 2.60791C9.16359 3.08252 9.42433 3.71387 9.42433 4.3833C9.42433 5.0542 9.16359 5.68408 8.68898 6.15869L4.79249 10.0537L4.16115 10.6851C3.57081 11.2754 2.61134 11.2754 2.02101 10.6851C1.73537 10.3994 1.57863 10.02 1.57863 9.61572C1.57863 9.21143 1.73537 8.83203 2.02101 8.54639L5.88673 4.68213C5.98488 4.58545 6.11378 4.53125 6.25148 4.53125H6.25294C6.39064 4.53125 6.51808 4.58545 6.61476 4.68213C6.7129 4.78027 6.76564 4.90918 6.76564 5.04687C6.76564 5.18311 6.71144 5.31201 6.61476 5.40869L3.45509 8.56543C3.43019 8.59033 3.41701 8.62402 3.41701 8.65918C3.41701 8.69434 3.43019 8.72803 3.45509 8.75293L3.99562 9.29346C4.02033 9.31806 4.05377 9.33187 4.08864 9.33187C4.1235 9.33187 4.15695 9.31806 4.18165 9.29346L7.33986 6.13525C7.63136 5.84375 7.79103 5.45703 7.79103 5.04541C7.79103 4.63379 7.6299 4.24561 7.33986 3.95557C6.73781 3.35352 5.75929 3.35498 5.15724 3.95557L4.78224 4.33203L1.29298 7.81982C1.05616 8.05525 0.868439 8.33536 0.7407 8.64389C0.612961 8.95243 0.547748 9.28326 0.548842 9.61719C0.548842 10.2954 0.813978 10.9326 1.29298 11.4116C1.78956 11.9067 2.43996 12.1543 3.09035 12.1543C3.74074 12.1543 4.39113 11.9067 4.88624 11.4116L9.41554 6.88525C10.082 6.21728 10.4512 5.32812 10.4512 4.3833C10.4527 3.43701 10.0835 2.54785 9.41554 1.87988Z" fill="#6D6D6D"/>
</svg>
