<svg width="15" height="15" viewBox="0 0 15 15" fill="none" xmlns="http://www.w3.org/2000/svg">
<path d="M7.5 14.0625C5.75952 14.0625 4.09032 13.3711 2.85961 12.1404C1.6289 10.9097 0.9375 9.24048 0.9375 7.5C0.9375 5.75952 1.6289 4.09032 2.85961 2.85961C4.09032 1.6289 5.75952 0.9375 7.5 0.9375C9.24048 0.9375 10.9097 1.6289 12.1404 2.85961C13.3711 4.09032 14.0625 5.75952 14.0625 7.5C14.0625 9.24048 13.3711 10.9097 12.1404 12.1404C10.9097 13.3711 9.24048 14.0625 7.5 14.0625ZM7.5 15C9.48912 15 11.3968 14.2098 12.8033 12.8033C14.2098 11.3968 15 9.48912 15 7.5C15 5.51088 14.2098 3.60322 12.8033 2.1967C11.3968 0.790176 9.48912 0 7.5 0C5.51088 0 3.60322 0.790176 2.1967 2.1967C0.790176 3.60322 0 5.51088 0 7.5C0 9.48912 0.790176 11.3968 2.1967 12.8033C3.60322 14.2098 5.51088 15 7.5 15V15Z" fill="#6D6D6D"/>
<path d="M4.0172 8.96906C4.12486 8.90691 4.2528 8.89006 4.37289 8.92224C4.49297 8.95441 4.59535 9.03297 4.65751 9.14062C4.94543 9.63969 5.35975 10.0541 5.85876 10.3421C6.35777 10.6301 6.92385 10.7816 7.50001 10.7812C8.07617 10.7816 8.64226 10.6301 9.14127 10.3421C9.64027 10.0541 10.0546 9.63969 10.3425 9.14062C10.3731 9.08688 10.4139 9.03972 10.4628 9.00184C10.5117 8.96397 10.5675 8.93613 10.6272 8.91993C10.6868 8.90374 10.7491 8.8995 10.8104 8.90747C10.8717 8.91544 10.9308 8.93545 10.9844 8.96636C11.0379 8.99727 11.0848 9.03846 11.1224 9.08757C11.1599 9.13668 11.1874 9.19273 11.2032 9.25249C11.219 9.31226 11.2228 9.37456 11.2144 9.43581C11.2061 9.49706 11.1857 9.55604 11.1544 9.60938C10.7842 10.251 10.2515 10.7837 9.61 11.154C8.96848 11.5243 8.24074 11.7191 7.50001 11.7188C6.75929 11.7191 6.03154 11.5243 5.39002 11.154C4.7485 10.7837 4.21583 10.251 3.84564 9.60938C3.78348 9.50171 3.76663 9.37377 3.79881 9.25369C3.83098 9.13361 3.90954 9.03122 4.0172 8.96906ZM6.56251 6.09375C6.56251 6.87 6.14251 7.5 5.62501 7.5C5.10751 7.5 4.68751 6.87 4.68751 6.09375C4.68751 5.3175 5.10751 4.6875 5.62501 4.6875C6.14251 4.6875 6.56251 5.3175 6.56251 6.09375ZM10.3125 6.09375C10.3125 6.87 9.89251 7.5 9.37501 7.5C8.85751 7.5 8.43751 6.87 8.43751 6.09375C8.43751 5.3175 8.85751 4.6875 9.37501 4.6875C9.89251 4.6875 10.3125 5.3175 10.3125 6.09375Z" fill="#6D6D6D"/>
</svg>
