<svg width="15" height="15" viewBox="0 0 15 15" fill="none" xmlns="http://www.w3.org/2000/svg">
<g clip-path="url(#clip0_101_2)">
<path d="M11.0081 9.69747C11.9159 8.45874 12.3225 6.92293 12.1465 5.3973C11.9706 3.87167 11.2251 2.46873 10.0592 1.46916C8.89324 0.469586 7.39289 -0.0528995 5.85829 0.00623156C4.32368 0.0653626 2.86799 0.701749 1.78244 1.78807C0.696895 2.8744 0.0615499 4.33054 0.00351689 5.86519C-0.0545161 7.39984 0.469042 8.89981 1.46945 10.065C2.46985 11.2302 3.87333 11.9747 5.39908 12.1496C6.92484 12.3244 8.46036 11.9168 9.69844 11.0081H9.6975C9.72563 11.0456 9.75563 11.0812 9.78938 11.1159L13.3988 14.7253C13.5745 14.9012 13.813 15.0001 14.0617 15.0002C14.3104 15.0002 14.5489 14.9015 14.7248 14.7258C14.9008 14.55 14.9996 14.3115 14.9997 14.0628C14.9998 13.8141 14.9011 13.5756 14.7253 13.3997L11.1159 9.79028C11.0824 9.75636 11.0464 9.72502 11.0081 9.69653V9.69747ZM11.25 6.09372C11.25 6.77085 11.1166 7.44135 10.8575 8.06693C10.5984 8.69252 10.2186 9.26094 9.73977 9.73974C9.26097 10.2185 8.69255 10.5984 8.06696 10.8575C7.44138 11.1166 6.77088 11.25 6.09375 11.25C5.41662 11.25 4.74613 11.1166 4.12054 10.8575C3.49496 10.5984 2.92654 10.2185 2.44773 9.73974C1.96893 9.26094 1.58912 8.69252 1.33 8.06693C1.07087 7.44135 0.937503 6.77085 0.937503 6.09372C0.937503 4.7262 1.48075 3.41469 2.44773 2.4477C3.41472 1.48072 4.72623 0.937472 6.09375 0.937472C7.46128 0.937472 8.77279 1.48072 9.73977 2.4477C10.7068 3.41469 11.25 4.7262 11.25 6.09372V6.09372Z" fill="rgb(109, 109, 109)"/>
</g>
<defs>
<clipPath id="clip0_101_2">
<rect width="15" height="15" fill="rgb(109, 109, 109)"/>
</clipPath>
</defs>
</svg>
